<svg xmlns="http://www.w3.org/2000/svg" width="18" height="18" viewBox="0 0 18 18">
  <g id="Group_149" data-name="Group 149" transform="translate(-397 -218)">
    <circle id="Ellipse_10" data-name="Ellipse 10" cx="9" cy="9" r="9" transform="translate(397 218)" fill="#009dd8"/>
    <path id="Path_47" data-name="Path 47" d="M9.41,2A4.2,4.2,0,0,0,5,5.961c0,2.971,4.41,7.356,4.41,7.356s4.41-4.385,4.41-7.356A4.2,4.2,0,0,0,9.41,2Zm0,5.375A1.5,1.5,0,0,1,7.835,5.961,1.5,1.5,0,0,1,9.41,4.546a1.5,1.5,0,0,1,1.575,1.415A1.5,1.5,0,0,1,9.41,7.375Z" transform="translate(396.779 219)" fill="#fff"/>
  </g>
</svg>
